<?xml version="1.0" standalone="no"?>
<!DOCTYPE svg PUBLIC "-//W3C//DTD SVG 20010904//EN"
 "http://www.w3.org/TR/2001/REC-SVG-20010904/DTD/svg10.dtd">
<svg version="1.0" xmlns="http://www.w3.org/2000/svg"
 width="176.000000pt" height="176.000000pt" viewBox="0 0 176.000000 176.000000"
 preserveAspectRatio="xMidYMid meet">
<metadata>
Created by potrace 1.14, written by Peter Selinger 2001-2017
</metadata>
<g transform="translate(0.000000,176.000000) scale(0.100000,-0.100000)"
fill="#000000" stroke="none">
<path d="M2 1628 c0 -88 4 -135 12 -140 8 -6 8 -8 -1 -8 -10 0 -13 -161 -13
-740 l0 -740 560 0 c516 0 560 1 560 17 0 9 2 14 6 11 3 -3 21 -2 40 2 25 6
34 5 34 -5 0 -8 -12 -16 -27 -18 -16 -2 110 -5 280 -6 l307 -1 0 318 0 318
-32 -1 c-39 -2 -58 3 -58 17 0 6 6 5 15 -2 8 -7 15 -8 15 -2 0 5 14 8 30 7
l30 -3 0 60 c0 37 -4 57 -10 53 -5 -3 -10 -1 -10 4 0 6 5 11 10 11 6 0 10 47
10 121 0 77 -4 118 -10 114 -6 -3 -10 -1 -10 4 0 6 5 11 10 11 6 0 10 128 10
365 l0 365 -880 0 -879 0 1 -132z m105 100 c-3 -8 -6 -5 -6 6 -1 11 2 17 5 13
3 -3 4 -12 1 -19z m63 7 c-14 -17 -30 -20 -30 -6 0 5 8 12 18 14 9 3 19 5 21
6 2 0 -2 -6 -9 -14z m97 -7 c-3 -8 -6 -5 -6 6 -1 11 2 17 5 13 3 -3 4 -12 1
-19z m113 7 c0 -6 -13 -11 -30 -11 -39 0 -39 21 0 22 17 1 30 -4 30 -11z m150
-1 c0 -12 -38 -13 -57 -1 -8 5 -13 3 -13 -4 0 -7 -3 -10 -6 -6 -13 12 6 23 40
23 20 0 36 -5 36 -12z m270 -1 c0 -15 -21 -13 -32 2 -5 6 -8 5 -8 -2 0 -8 -9
-11 -22 -9 -13 3 -29 5 -36 5 -7 1 -11 5 -8 9 9 14 106 9 106 -5z m90 0 c0 -7
-13 -11 -30 -11 -16 1 -30 6 -30 13 0 7 13 12 30 11 16 -1 30 -6 30 -13z m54
6 c-2 -4 2 -9 8 -12 7 -3 3 -4 -9 -4 -25 1 -32 24 -8 24 8 0 12 -4 9 -8z m146
-4 c0 -8 -9 -15 -21 -15 -13 0 -18 4 -13 12 5 7 3 8 -7 2 -22 -13 -39 -13 -39
0 0 7 17 13 40 14 30 2 40 -1 40 -13z m150 0 c0 -6 -11 -11 -25 -11 -14 0 -25
3 -25 7 0 4 -17 3 -37 -2 -39 -8 -49 -6 -40 8 9 14 127 11 127 -2z m36 2 c8 3
14 0 14 -7 0 -15 -33 -9 -36 8 -1 7 0 8 2 3 3 -6 12 -7 20 -4z m-1206 -7 c0
-5 -4 -10 -10 -10 -5 0 -10 5 -10 10 0 6 5 10 10 10 6 0 10 -4 10 -10z m197
-42 c-3 -8 -6 -5 -6 6 -1 11 2 17 5 13 3 -3 4 -12 1 -19z m113 9 c0 -7 -13
-14 -30 -15 -16 -1 -30 2 -30 7 0 8 10 12 53 20 4 0 7 -5 7 -12z m150 0 c0 -7
-13 -13 -30 -13 -38 -2 -40 13 -2 19 15 2 28 5 30 6 1 0 2 -5 2 -12z m177 -9
c-3 -8 -6 -5 -6 6 -1 11 2 17 5 13 3 -3 4 -12 1 -19z m51 10 c7 -7 12 -8 12
-2 0 6 7 11 15 11 8 0 15 -6 15 -13 0 -16 -72 -13 -78 4 -5 15 20 16 36 0z
m118 2 c8 0 14 -4 14 -10 0 -5 -13 -10 -30 -10 -21 0 -30 5 -30 16 0 11 5 14
16 10 9 -3 22 -6 30 -6z m78 -6 c3 -8 -3 -12 -15 -11 -10 1 -19 6 -19 12 0 16
28 15 34 -1z m136 -1 c0 -8 -14 -12 -40 -10 -52 3 -52 23 0 22 25 0 40 -5 40
-12z m150 -2 c0 -4 -11 -7 -25 -7 -14 0 -25 5 -25 12 0 7 10 9 25 6 14 -2 25
-7 25 -11z m50 -2 c0 -5 -5 -8 -12 -6 -6 1 -14 -6 -16 -15 -2 -14 1 -16 14
-11 12 4 15 3 10 -5 -4 -7 -14 -12 -22 -12 -18 0 -19 56 -1 63 15 5 27 -1 27
-14z m-1200 3 c0 -4 -9 -8 -20 -9 -11 -1 -20 2 -20 8 0 5 9 9 20 9 11 0 20 -4
20 -8z m85 -2 c-3 -5 -13 -10 -21 -10 -8 0 -14 5 -14 10 0 6 9 10 21 10 11 0
17 -4 14 -10z m50 0 c3 -5 1 -10 -4 -10 -6 0 -11 5 -11 10 0 6 2 10 4 10 3 0
8 -4 11 -10z m955 2 c0 -4 -16 -8 -35 -9 -19 0 -35 3 -35 8 0 5 16 9 35 9 19
0 35 -4 35 -8z m-913 -44 c-3 -8 -6 -5 -6 6 -1 11 2 17 5 13 3 -3 4 -12 1 -19z
m263 7 c0 -12 -10 -15 -40 -13 -50 3 -52 16 -2 21 20 2 38 4 40 5 1 1 2 -5 2
-13z m177 -7 c-3 -8 -6 -5 -6 6 -1 11 2 17 5 13 3 -3 4 -12 1 -19z m70 9 c6
-4 14 -1 16 5 3 8 6 5 6 -5 1 -13 -5 -17 -21 -15 -13 2 -26 8 -30 13 -5 6 -8
5 -8 -2 0 -7 -4 -13 -10 -13 -5 0 -10 6 -10 13 0 15 36 17 57 4z m99 3 c8 0
14 -4 14 -10 0 -5 -13 -10 -30 -10 -21 0 -30 5 -30 16 0 11 5 14 16 10 9 -3
22 -6 30 -6z m82 -8 c2 -7 -6 -12 -17 -12 -12 0 -21 6 -21 14 0 17 32 15 38
-2z m91 4 c9 -6 12 -5 8 2 -5 6 0 8 13 5 35 -9 21 -24 -20 -21 -23 1 -40 7
-40 14 0 13 17 13 39 0z m-959 -4 c0 -4 -9 -8 -20 -9 -11 -1 -20 2 -20 8 0 5
9 9 20 9 11 0 20 -4 20 -8z m85 -2 c-3 -5 -13 -10 -21 -10 -8 0 -14 5 -14 10
0 6 9 10 21 10 11 0 17 -4 14 -10z m50 0 c3 -5 1 -10 -4 -10 -6 0 -11 5 -11
10 0 6 2 10 4 10 3 0 8 -4 11 -10z m155 2 c0 -4 -13 -9 -30 -10 -16 -1 -30 2
-30 8 0 5 14 10 30 10 17 0 30 -4 30 -8z m860 0 c0 -4 -30 -9 -66 -10 -42 -2
-63 1 -59 8 7 12 125 14 125 2z m-489 -31 c0 10 2 11 6 2 3 -9 10 -10 24 -3
14 8 19 7 19 -3 0 -8 -14 -13 -40 -14 -29 -1 -40 3 -40 14 0 13 3 13 15 3 12
-10 15 -10 16 1z m209 -12 c0 -5 -9 -9 -20 -9 -11 0 -20 6 -20 14 0 9 7 12 20
9 11 -3 20 -9 20 -14z m108 12 c12 -1 22 -5 22 -10 0 -5 -18 -9 -40 -8 -23 1
-40 6 -40 13 0 7 8 11 18 9 9 -2 27 -4 40 -4z m242 -6 c0 -6 -9 -11 -20 -11
-19 0 -25 7 -15 18 9 9 35 5 35 -7z m-1220 -3 c0 -4 -9 -8 -20 -9 -11 -1 -20
2 -20 8 0 5 9 9 20 9 11 0 20 -4 20 -8z m84 -4 c-7 -11 -34 -10 -34 1 0 6 9 9
19 8 11 0 17 -5 15 -9z m56 2 c0 -5 -4 -10 -10 -10 -5 0 -10 5 -10 10 0 6 5
10 10 10 6 0 10 -4 10 -10z m150 2 c0 -4 -13 -9 -30 -10 -16 -1 -30 2 -30 8 0
5 14 10 30 10 17 0 30 -4 30 -8z m150 -4 c0 -5 -18 -8 -40 -6 -22 1 -40 6 -40
10 0 5 18 8 40 6 22 -1 40 -6 40 -10z m360 2 c0 -5 -13 -10 -30 -10 -16 0 -30
5 -30 10 0 6 14 10 30 10 17 0 30 -4 30 -10z m330 -1 c0 -3 -17 -7 -38 -7 -21
0 -42 -2 -48 -3 -18 -3 -25 1 -19 11 7 12 105 11 105 -1z m101 -33 c5 3 9 -2
9 -11 0 -13 -4 -14 -20 -5 -11 6 -25 8 -30 5 -6 -3 -10 -2 -10 4 0 12 34 20
38 9 2 -5 8 -6 13 -2z m-1231 -6 c0 -3 -13 -6 -30 -6 -16 0 -30 3 -30 7 0 4
14 7 30 7 17 -1 30 -4 30 -8z m84 -2 c-7 -11 -34 -10 -34 1 0 6 9 9 19 8 11 0
17 -5 15 -9z m93 -10 c-3 -8 -6 -5 -6 6 -1 11 2 17 5 13 3 -3 4 -12 1 -19z
m113 9 c0 -9 -10 -12 -30 -9 -16 2 -30 8 -30 13 0 5 14 9 30 9 18 0 30 -5 30
-13z m150 1 c0 -5 -3 -8 -7 -9 -5 0 -16 -2 -25 -4 -10 -2 -20 1 -24 6 -3 5
-10 7 -15 4 -5 -4 -9 -2 -9 3 0 5 18 9 40 8 22 0 40 -4 40 -8z m177 -10 c-3
-8 -6 -5 -6 6 -1 11 2 17 5 13 3 -3 4 -12 1 -19z m93 10 c0 -8 -15 -13 -40
-13 -25 0 -40 5 -40 13 0 7 15 12 40 12 25 0 40 -5 40 -12z m90 -1 c0 -9 -10
-12 -30 -9 -16 2 -30 8 -30 13 0 5 14 9 30 9 18 0 30 -5 30 -13z m61 -1 c-1
-16 -31 -15 -31 1 0 8 7 13 16 11 8 -2 15 -7 15 -12z m139 3 c0 -5 -8 -9 -17
-7 -10 1 -24 -1 -30 -5 -8 -5 -13 -3 -13 5 0 9 -3 9 -10 -2 -8 -13 -10 -12
-10 3 0 13 9 17 40 17 22 0 40 -5 40 -11z m150 -1 c0 -4 -3 -8 -7 -9 -5 0 -16
-2 -25 -4 -10 -2 -18 0 -18 5 0 4 -16 4 -35 0 -31 -7 -52 -1 -40 12 8 8 125 4
125 -4z m160 3 c0 -11 -30 -19 -47 -14 -24 8 -13 23 17 23 17 0 30 -4 30 -9z
m-1312 -46 c4 -4 2 -5 -5 -2 -6 4 -14 1 -16 -5 -4 -10 -8 -10 -15 1 -8 11 -10
11 -15 0 -4 -10 -6 -9 -6 3 -1 12 6 16 24 14 14 -1 28 -6 33 -11z m87 5 c-3
-5 -14 -10 -23 -9 -14 0 -13 2 3 9 27 11 27 11 20 0z m92 -12 c-3 -8 -6 -5 -6
6 -1 11 2 17 5 13 3 -3 4 -12 1 -19z m110 9 c0 -7 -13 -13 -29 -12 -37 0 -37
19 0 22 17 1 29 -3 29 -10z m153 -3 c0 -9 -42 -12 -60 -4 -3 1 -9 2 -13 1 -5
-1 -6 2 -3 7 7 12 76 9 76 -4z m177 -6 c-3 -8 -6 -5 -6 6 -1 11 2 17 5 13 3
-3 4 -12 1 -19z m53 7 c0 -6 3 -7 8 0 10 14 32 17 32 5 0 -11 -4 -12 -50 -14
-17 0 -30 4 -30 11 0 6 9 11 20 10 11 -1 20 -6 20 -12z m130 -3 c0 -9 -6 -12
-16 -8 -9 3 -22 6 -30 6 -8 0 -14 4 -14 8 0 5 14 9 30 9 19 0 30 -5 30 -15z
m68 1 c2 -7 -1 -13 -8 -13 -6 0 -8 5 -4 13 5 8 2 8 -9 -2 -15 -12 -17 -11 -17
4 0 19 31 17 38 -2z m132 5 c0 -8 -9 -14 -20 -15 -13 -1 -18 2 -14 9 5 7 2 8
-7 2 -22 -13 -39 -13 -39 0 0 7 17 13 40 14 28 2 40 -1 40 -10z m146 -1 c4 -4
3 -7 -2 -8 -5 0 -17 -2 -26 -4 -10 -2 -18 0 -18 5 0 4 -16 4 -35 0 -32 -7 -52
-1 -40 12 8 8 113 4 121 -5z m54 -1 c0 -10 -7 -12 -22 -8 -21 5 -21 6 -2 13
10 4 20 8 22 8 1 1 2 -5 2 -13z m-1023 -48 c-3 -8 -6 -5 -6 6 -1 11 2 17 5 13
3 -3 4 -12 1 -19z m113 9 c0 -7 -13 -14 -30 -15 -16 -1 -30 2 -30 7 0 8 10 12
53 20 4 0 7 -5 7 -12z m150 0 c0 -9 -10 -13 -27 -11 -40 3 -42 5 -8 14 17 4
31 8 33 9 1 0 2 -5 2 -12z m228 -5 c2 -7 -6 -12 -17 -12 -12 0 -21 6 -21 14 0
17 32 15 38 -2z m39 -4 c-3 -8 -6 -5 -6 6 -1 11 2 17 5 13 3 -3 4 -12 1 -19z
m79 12 c8 0 14 -4 14 -10 0 -5 -13 -10 -30 -10 -21 0 -30 5 -30 16 0 11 5 14
16 10 9 -3 22 -6 30 -6z m78 -5 c-4 -8 -8 -15 -10 -15 -2 0 -4 7 -4 15 0 8 4
15 10 15 5 0 7 -7 4 -15z m136 -2 c0 -7 -9 -13 -21 -13 -13 0 -18 4 -13 12 5
7 3 8 -7 2 -22 -13 -39 -13 -39 0 0 8 15 13 40 13 27 0 40 -4 40 -14z m193 7
c15 0 27 -4 27 -9 0 -5 -45 -9 -100 -8 -91 1 -109 5 -96 18 3 3 36 3 73 2 37
-2 80 -3 96 -3z m44 -12 c-3 -8 -6 -5 -6 6 -1 11 2 17 5 13 3 -3 4 -12 1 -19z
m-1237 4 c0 -4 -9 -8 -20 -9 -11 -1 -20 2 -20 8 0 5 9 9 20 9 11 0 20 -4 20
-8z m80 -2 c-19 -13 -30 -13 -30 0 0 6 10 10 23 10 18 0 19 -2 7 -10z m55 0
c3 -5 1 -10 -4 -10 -6 0 -11 5 -11 10 0 6 2 10 4 10 3 0 8 -4 11 -10z m42 -42
c-3 -8 -6 -5 -6 6 -1 11 2 17 5 13 3 -3 4 -12 1 -19z m113 9 c0 -7 -13 -14
-30 -15 -38 -3 -40 15 -2 21 15 2 28 5 30 6 1 0 2 -5 2 -12z m150 0 c0 -7 -13
-14 -30 -15 -38 -3 -40 15 -2 21 15 2 28 5 30 6 1 0 2 -5 2 -12z m270 -3 c0
-7 -16 -12 -40 -12 -29 -1 -40 3 -40 14 0 11 10 14 40 12 23 -1 40 -7 40 -14z
m88 -6 c-2 -5 -7 -9 -11 -9 -4 1 -16 1 -27 1 -11 0 -20 6 -20 13 0 9 10 12 30
9 17 -2 29 -9 28 -14z m72 1 c0 -5 -4 -9 -10 -9 -5 0 -10 7 -10 16 0 8 5 12
10 9 6 -3 10 -10 10 -16z m37 -1 c-3 -8 -6 -5 -6 6 -1 11 2 17 5 13 3 -3 4
-12 1 -19z m20 0 c-3 -8 -6 -5 -6 6 -1 11 2 17 5 13 3 -3 4 -12 1 -19z m73 7
c0 -8 -6 -15 -14 -15 -17 0 -28 14 -19 24 12 12 33 6 33 -9z m100 5 c4 7 13 9
19 6 25 -16 8 -26 -46 -26 -35 0 -53 4 -47 9 13 13 58 18 63 7 2 -4 7 -3 11 4z
m47 -12 c-3 -8 -6 -5 -6 6 -1 11 2 17 5 13 3 -3 4 -12 1 -19z m53 -1 c0 -7 -4
-6 -10 3 -7 11 -10 11 -10 2 0 -7 -5 -10 -11 -6 -8 4 -7 9 2 15 15 9 29 3 29
-14z m-1200 5 c0 -4 -9 -8 -20 -9 -11 -1 -20 2 -20 8 0 5 9 9 20 9 11 0 20 -4
20 -8z m85 -2 c-3 -5 -13 -10 -21 -10 -8 0 -14 5 -14 10 0 6 9 10 21 10 11 0
17 -4 14 -10z m50 0 c3 -5 1 -10 -4 -10 -6 0 -11 5 -11 10 0 6 2 10 4 10 3 0
8 -4 11 -10z m305 -35 c0 -10 -10 -15 -30 -15 -38 0 -39 17 -2 23 15 2 28 5
30 6 1 0 2 -6 2 -14z m177 -7 c-3 -8 -6 -5 -6 6 -1 11 2 17 5 13 3 -3 4 -12 1
-19z m73 7 c0 -6 -13 -12 -30 -13 -19 -1 -30 2 -30 10 0 8 12 13 30 13 17 0
30 -5 30 -10z m17 -7 c-3 -8 -6 -5 -6 6 -1 11 2 17 5 13 3 -3 4 -12 1 -19z
m91 0 c-2 -5 -7 -9 -11 -9 -4 1 -16 1 -27 1 -11 0 -20 6 -20 13 0 9 10 12 30
9 17 -2 29 -9 28 -14z m66 6 c3 -8 2 -12 -4 -9 -6 3 -10 10 -10 16 0 14 7 11
14 -7z m43 -6 c-3 -8 -6 -5 -6 6 -1 11 2 17 5 13 3 -3 4 -12 1 -19z m20 0 c-3
-8 -6 -5 -6 6 -1 11 2 17 5 13 3 -3 4 -12 1 -19z m73 5 c0 -7 -9 -13 -20 -13
-19 0 -26 11 -15 22 10 10 35 4 35 -9z m100 5 c0 8 5 10 12 6 7 -5 25 -7 40
-6 15 1 28 -2 28 -7 0 -5 -29 -9 -64 -10 -35 0 -68 -2 -74 -3 -5 -2 -12 1 -13
7 -5 14 54 23 63 10 5 -6 8 -5 8 3z m-1100 -6 c0 -4 -9 -8 -20 -9 -11 -1 -20
2 -20 8 0 5 9 9 20 9 11 0 20 -4 20 -8z m84 -4 c-7 -11 -34 -10 -34 1 0 6 9 9
19 8 11 0 17 -5 15 -9z m56 2 c0 -5 -4 -10 -10 -10 -5 0 -10 5 -10 10 0 6 5
10 10 10 6 0 10 -4 10 -10z m150 2 c0 -4 -13 -9 -30 -10 -16 -1 -30 2 -30 8 0
5 14 10 30 10 17 0 30 -4 30 -8z m811 -36 c5 3 9 0 9 -5 0 -6 -13 -11 -29 -11
-16 0 -37 -3 -45 -6 -12 -5 -15 -2 -10 10 3 9 9 14 13 12 3 -2 15 0 26 4 11 4
22 3 23 -1 2 -5 8 -7 13 -3z m-1101 -4 c0 -4 -9 -8 -20 -9 -11 -1 -20 2 -20 5
0 4 9 8 20 9 11 1 20 -2 20 -5z m84 -4 c-7 -11 -34 -10 -34 1 0 6 9 9 19 8 11
0 17 -5 15 -9z m56 2 c0 -5 -4 -10 -10 -10 -5 0 -10 5 -10 10 0 6 5 10 10 10
6 0 10 -4 10 -10z m37 -12 c-3 -8 -6 -5 -6 6 -1 11 2 17 5 13 3 -3 4 -12 1
-19z m113 12 c0 -5 -13 -10 -30 -10 -16 0 -30 5 -30 10 0 6 14 10 30 10 17 0
30 -4 30 -10z m150 -2 c0 -8 -17 -12 -35 -8 -5 1 -18 2 -27 3 -37 3 -16 17 22
14 22 -1 40 -5 40 -9z m270 2 c0 -5 -22 -9 -50 -8 -27 2 -50 6 -50 10 0 5 23
8 50 8 28 0 50 -4 50 -10z m88 -1 c-2 -6 -7 -10 -11 -10 -4 1 -16 1 -27 1 -33
0 -23 17 11 18 16 0 29 -4 27 -9z m39 -11 c-3 -8 -6 -5 -6 6 -1 11 2 17 5 13
3 -3 4 -12 1 -19z m163 13 c0 -5 -18 -9 -40 -8 -22 1 -40 5 -40 9 0 5 18 8 40
8 22 0 40 -4 40 -9z m194 1 c2 -4 -4 -9 -15 -9 -10 -1 -19 2 -19 8 0 11 27 12
34 1z m-1194 -42 c0 -3 -13 -6 -30 -6 -16 0 -30 3 -30 7 0 4 14 7 30 7 17 -1
30 -4 30 -8z m84 -2 c-7 -11 -34 -10 -34 1 0 6 9 9 19 8 11 0 17 -5 15 -9z
m56 8 c0 -3 -4 -8 -10 -11 -5 -3 -10 -1 -10 4 0 6 5 11 10 11 6 0 10 -2 10 -4z
m37 -18 c-3 -8 -6 -5 -6 6 -1 11 2 17 5 13 3 -3 4 -12 1 -19z m110 10 c0 -8
-13 -13 -29 -13 -15 0 -28 5 -28 10 0 6 13 12 28 13 18 1 29 -3 29 -10z m153
0 c0 -5 -3 -8 -7 -9 -5 0 -16 -2 -25 -4 -10 -2 -20 1 -24 6 -3 5 -10 7 -15 4
-5 -4 -9 -2 -9 3 0 5 18 9 40 8 22 0 40 -4 40 -8z m177 -10 c-3 -8 -6 -5 -6 6
-1 11 2 17 5 13 3 -3 4 -12 1 -19z m20 0 c-3 -8 -6 -5 -6 6 -1 11 2 17 5 13 3
-3 4 -12 1 -19z m53 9 c0 -7 -9 -13 -20 -13 -11 0 -20 6 -20 13 0 7 9 13 20
13 11 0 20 -6 20 -13z m17 -9 c-3 -8 -6 -5 -6 6 -1 11 2 17 5 13 3 -3 4 -12 1
-19z m93 6 c0 -11 -5 -14 -16 -10 -9 3 -22 6 -30 6 -27 0 -14 16 16 18 22 2
30 -2 30 -14z m65 7 c3 -5 2 -12 -3 -15 -5 -3 -9 1 -9 9 0 17 3 19 12 6z m42
-13 c-3 -8 -6 -5 -6 6 -1 11 2 17 5 13 3 -3 4 -12 1 -19z m20 0 c-3 -8 -6 -5
-6 6 -1 11 2 17 5 13 3 -3 4 -12 1 -19z m73 8 c0 -9 -7 -12 -20 -9 -11 3 -20
9 -20 14 0 5 9 9 20 9 11 0 20 -6 20 -14z m90 0 c0 -6 5 -4 10 4 9 13 10 13
10 0 0 -11 -11 -15 -44 -16 -27 0 -42 4 -40 11 6 14 64 16 64 1z m37 -8 c-3
-8 -6 -5 -6 6 -1 11 2 17 5 13 3 -3 4 -12 1 -19z m20 0 c-3 -8 -6 -5 -6 6 -1
11 2 17 5 13 3 -3 4 -12 1 -19z m50 8 c0 -8 -8 -11 -19 -8 -10 2 -18 7 -18 11
0 4 8 7 18 8 10 1 19 -4 19 -11z m-1180 -48 c-3 -8 -6 -5 -6 6 -1 11 2 17 5
13 3 -3 4 -12 1 -19z m63 7 c-14 -17 -30 -20 -30 -6 0 5 8 12 18 14 9 3 19 5
21 6 2 0 -2 -6 -9 -14z m97 -7 c-3 -8 -6 -5 -6 6 -1 11 2 17 5 13 3 -3 4 -12
1 -19z m113 7 c0 -6 -13 -11 -30 -11 -39 0 -39 21 0 22 17 1 30 -4 30 -11z
m150 0 c0 -7 -12 -11 -27 -9 -35 3 -35 3 -29 12 7 12 56 9 56 -3z m227 -2 c3
-7 -4 -11 -16 -10 -12 1 -21 7 -21 15 0 16 32 12 37 -5z m43 2 c0 -9 -6 -12
-15 -9 -8 4 -15 10 -15 15 0 5 7 9 15 9 8 0 15 -7 15 -15z m83 6 c4 0 7 -6 7
-12 0 -14 -52 -7 -57 7 -3 10 13 11 50 5z m77 -12 c0 -5 -4 -9 -10 -9 -5 0
-10 7 -10 16 0 8 5 12 10 9 6 -3 10 -10 10 -16z m37 -1 c-3 -8 -6 -5 -6 6 -1
11 2 17 5 13 3 -3 4 -12 1 -19z m20 0 c-3 -8 -6 -5 -6 6 -1 11 2 17 5 13 3 -3
4 -12 1 -19z m73 7 c0 -8 -6 -15 -14 -15 -17 0 -28 14 -19 24 12 12 33 6 33
-9z m92 0 c5 -6 8 -5 8 2 0 7 7 10 15 7 30 -12 13 -21 -40 -21 -50 0 -63 5
-50 18 8 9 60 4 67 -6z m55 -7 c-3 -8 -6 -5 -6 6 -1 11 2 17 5 13 3 -3 4 -12
1 -19z m73 9 c0 -7 -13 -14 -30 -15 -38 -3 -40 15 -2 21 15 2 28 5 30 6 1 0 2
-5 2 -12z m-1230 -7 c-19 -13 -30 -13 -30 0 0 6 10 10 23 10 18 0 19 -2 7 -10z
m187 -42 c-3 -8 -6 -5 -6 6 -1 11 2 17 5 13 3 -3 4 -12 1 -19z m113 9 c0 -7
-13 -14 -30 -15 -16 -1 -30 2 -30 7 0 8 10 12 53 20 4 0 7 -5 7 -12z m150 0
c0 -7 -13 -14 -30 -15 -38 -3 -40 15 -2 21 15 2 28 5 30 6 1 0 2 -5 2 -12z
m270 -1 c0 -6 -18 -12 -40 -13 -26 -2 -40 2 -40 10 0 7 15 12 40 13 22 0 40
-4 40 -10z m88 -8 c-2 -5 -7 -9 -11 -9 -4 1 -16 1 -27 1 -11 0 -20 6 -20 13 0
9 10 12 30 9 17 -2 29 -9 28 -14z m72 1 c0 -5 -4 -9 -10 -9 -5 0 -10 7 -10 16
0 8 5 12 10 9 6 -3 10 -10 10 -16z m37 -1 c-3 -8 -6 -5 -6 6 -1 11 2 17 5 13
3 -3 4 -12 1 -19z m20 0 c-3 -8 -6 -5 -6 6 -1 11 2 17 5 13 3 -3 4 -12 1 -19z
m73 7 c0 -8 -6 -15 -14 -15 -17 0 -28 14 -19 24 12 12 33 6 33 -9z m110 2 c0
5 14 8 30 5 54 -8 32 -18 -40 -19 -38 -1 -70 3 -70 7 0 12 53 17 68 7 7 -6 12
-6 12 0z m110 -8 c0 -5 -9 -9 -20 -9 -11 0 -20 6 -20 14 0 9 7 12 20 9 11 -3
20 -9 20 -14z m-1220 3 c0 -4 -9 -8 -20 -9 -11 -1 -20 2 -20 8 0 5 9 9 20 9
11 0 20 -4 20 -8z m85 -2 c-3 -5 -13 -10 -21 -10 -8 0 -14 5 -14 10 0 6 9 10
21 10 11 0 17 -4 14 -10z m50 0 c3 -5 1 -10 -4 -10 -6 0 -11 5 -11 10 0 6 2
10 4 10 3 0 8 -4 11 -10z m42 -42 c-3 -8 -6 -5 -6 6 -1 11 2 17 5 13 3 -3 4
-12 1 -19z m263 7 c0 -12 -10 -15 -40 -13 -50 3 -52 16 -2 21 20 2 38 4 40 5
1 1 2 -5 2 -13z m177 -7 c-3 -8 -6 -5 -6 6 -1 11 2 17 5 13 3 -3 4 -12 1 -19z
m50 9 c6 -4 14 -2 16 3 3 6 4 5 3 -2 -3 -16 -53 -18 -53 -2 0 13 15 13 34 1z
m40 -9 c-3 -8 -6 -5 -6 6 -1 11 2 17 5 13 3 -3 4 -12 1 -19z m79 12 c8 0 14
-4 14 -10 0 -5 -13 -10 -30 -10 -21 0 -30 5 -30 16 0 11 5 14 16 10 9 -3 22
-6 30 -6z m51 -12 c-3 -8 -6 -5 -6 6 -1 11 2 17 5 13 3 -3 4 -12 1 -19z m33 1
c0 -5 -4 -9 -10 -9 -5 0 -10 7 -10 16 0 8 5 12 10 9 6 -3 10 -10 10 -16z m87
8 c6 -4 14 -3 18 3 4 6 11 8 16 5 20 -13 7 -22 -31 -22 -25 0 -40 5 -40 13 0
13 17 14 37 1z m181 4 c6 -1 12 -5 12 -11 0 -6 -27 -10 -60 -10 -33 0 -60 4
-60 9 0 10 40 17 75 14 11 -1 26 -2 33 -2z m82 -4 c0 -7 -13 -14 -30 -15 -38
-3 -40 15 -2 21 15 2 28 5 30 6 1 0 2 -5 2 -12z m60 4 c0 -4 11 -6 25 -3 14 2
25 0 25 -6 0 -15 -17 -24 -24 -14 -3 5 -17 7 -31 4 -24 -4 -33 7 -18 21 9 10
23 9 23 -2z m67 -13 c-3 -8 -6 -5 -6 6 -1 11 2 17 5 13 3 -3 4 -12 1 -19z
m-1347 4 c0 -4 -9 -8 -20 -9 -11 -1 -20 2 -20 8 0 5 9 9 20 9 11 0 20 -4 20
-8z m85 -2 c-3 -5 -13 -10 -21 -10 -8 0 -14 5 -14 10 0 6 9 10 21 10 11 0 17
-4 14 -10z m55 0 c0 -5 -4 -10 -10 -10 -5 0 -10 5 -10 10 0 6 5 10 10 10 6 0
10 -4 10 -10z m150 2 c0 -4 -13 -9 -30 -10 -16 -1 -30 2 -30 8 0 5 14 10 30
10 17 0 30 -4 30 -8z m1110 0 c0 -14 -11 -21 -26 -15 -21 8 -17 23 6 23 11 0
20 -4 20 -8z m70 -2 c0 -5 -11 -10 -25 -10 -14 0 -25 5 -25 10 0 6 11 10 25
10 14 0 25 -4 25 -10z m-476 -39 c3 -4 -13 -7 -35 -7 -22 0 -39 5 -39 11 0 12
67 8 74 -4z m150 7 c3 3 6 0 6 -6 0 -8 -20 -12 -55 -12 -30 0 -57 0 -60 0 -14
0 3 15 19 17 11 2 22 5 24 7 2 2 16 0 32 -4 16 -4 31 -6 34 -2z m76 -1 c0 -7
-13 -14 -30 -15 -38 -3 -40 15 -2 21 15 2 28 5 30 6 1 0 2 -5 2 -12z m-1220
-5 c0 -4 -9 -8 -20 -9 -11 -1 -20 2 -20 5 0 4 9 8 20 9 11 1 20 -2 20 -5z m84
-4 c-7 -11 -34 -10 -34 1 0 6 9 9 19 8 11 0 17 -5 15 -9z m56 2 c0 -5 -4 -10
-10 -10 -5 0 -10 5 -10 10 0 6 5 10 10 10 6 0 10 -4 10 -10z m150 2 c0 -4 -13
-9 -30 -10 -16 -1 -30 2 -30 8 0 5 14 10 30 10 17 0 30 -4 30 -8z m150 -4 c0
-5 -18 -8 -40 -6 -22 1 -40 6 -40 10 0 5 18 8 40 6 22 -1 40 -6 40 -10z m244
2 c-8 -8 -74 -10 -74 -2 0 4 18 7 39 7 22 0 38 -2 35 -5z m116 0 c0 -5 -13
-10 -30 -10 -16 0 -30 5 -30 10 0 6 14 10 30 10 17 0 30 -4 30 -10z m70 0 c0
-5 -4 -10 -10 -10 -5 0 -10 5 -10 10 0 6 5 10 10 10 6 0 10 -4 10 -10z m460
-1 c0 -9 -32 -17 -47 -12 -25 9 -13 23 17 21 17 -1 30 -5 30 -9z m115 -1 c3
-3 -6 -8 -20 -10 -17 -4 -25 -1 -25 8 0 13 33 15 45 2z m-298 -40 c-3 -8 -6
-5 -6 6 -1 11 2 17 5 13 3 -3 4 -12 1 -19z m-1147 2 c0 -3 -13 -6 -30 -6 -16
0 -30 3 -30 7 0 4 14 7 30 7 17 -1 30 -4 30 -8z m84 -2 c-7 -11 -34 -10 -34 1
0 6 9 9 19 8 11 0 17 -5 15 -9z m56 8 c0 -3 -4 -8 -10 -11 -5 -3 -10 -1 -10 4
0 6 5 11 10 11 6 0 10 -2 10 -4z m37 -18 c-3 -8 -6 -5 -6 6 -1 11 2 17 5 13 3
-3 4 -12 1 -19z m113 10 c0 -8 -13 -13 -30 -13 -17 0 -30 5 -30 13 0 7 13 12
30 12 17 0 30 -5 30 -12z m150 0 c0 -5 -3 -8 -7 -9 -5 0 -16 -2 -25 -4 -10 -2
-20 1 -24 6 -3 5 -10 7 -15 4 -5 -4 -9 -2 -9 3 0 5 18 9 40 8 22 0 40 -4 40
-8z m247 -5 c0 -6 -8 -11 -18 -10 -10 1 -15 5 -13 9 3 4 1 8 -5 8 -5 0 -12 -6
-14 -12 -3 -8 -6 -6 -6 4 -1 13 6 17 27 15 16 -1 29 -7 29 -14z m111 6 c-2 -6
-7 -10 -11 -10 -4 1 -16 1 -27 1 -11 0 -20 5 -20 10 0 6 14 10 31 10 17 0 29
-5 27 -11z m67 2 c3 -5 2 -12 -3 -15 -5 -3 -9 1 -9 9 0 17 3 19 12 6z m42 -13
c-3 -8 -6 -5 -6 6 -1 11 2 17 5 13 3 -3 4 -12 1 -19z m40 7 c0 -6 -6 -12 -14
-12 -7 0 -13 6 -13 12 0 6 6 12 13 12 8 0 14 -6 14 -12z m53 5 c0 -5 -9 -10
-20 -10 -11 0 -20 5 -20 10 0 6 9 10 20 10 11 0 20 -4 20 -10z m90 0 c0 -8
-62 -21 -69 -14 -1 1 -1 6 2 11 7 10 67 13 67 3z m40 -6 c0 -8 -6 -11 -15 -8
-8 4 -15 9 -15 13 0 4 7 8 15 8 8 0 15 -6 15 -13z m89 -2 c0 -11 -3 -12 -6 -4
-2 6 -9 12 -14 12 -6 0 -7 -6 -3 -12 6 -10 5 -10 -8 -1 -8 7 -18 10 -21 6 -4
-3 -7 -2 -7 4 0 5 14 10 30 11 22 0 30 -4 29 -16z m-1272 -44 c-3 -8 -6 -5 -6
6 -1 11 2 17 5 13 3 -3 4 -12 1 -19z m49 10 c4 -6 3 -8 -4 -4 -5 3 -12 0 -15
-6 -2 -7 -8 -9 -13 -5 -5 4 -2 12 6 17 19 12 17 12 26 -2z m21 -10 c-3 -8 -6
-5 -6 6 -1 11 2 17 5 13 3 -3 4 -12 1 -19z m68 12 c-3 -5 -14 -10 -23 -9 -14
0 -13 2 3 9 27 11 27 11 20 0z m92 -12 c-3 -8 -6 -5 -6 6 -1 11 2 17 5 13 3
-3 4 -12 1 -19z m113 7 c0 -6 -13 -11 -30 -11 -39 0 -39 21 0 22 17 1 30 -4
30 -11z m150 0 c0 -7 -12 -11 -27 -9 -35 3 -35 3 -29 12 7 12 56 9 56 -3z
m230 0 c0 -8 -4 -15 -10 -15 -5 0 -10 6 -10 13 0 8 -4 7 -10 -3 -8 -13 -10
-12 -10 3 0 10 8 17 20 17 11 0 20 -7 20 -15z m17 -7 c-3 -8 -6 -5 -6 6 -1 11
2 17 5 13 3 -3 4 -12 1 -19z m113 4 c0 -9 -6 -12 -16 -8 -9 3 -22 6 -30 6 -8
0 -14 4 -14 8 0 5 14 9 30 9 19 0 30 -5 30 -15z m63 2 c-4 -11 -8 -12 -13 -4
-6 9 -9 9 -13 -1 -4 -10 -6 -9 -6 4 -1 11 6 17 19 17 14 0 18 -5 13 -16z m137
4 c0 -8 -9 -14 -20 -15 -13 -1 -18 2 -14 9 5 7 2 8 -7 2 -22 -13 -39 -13 -39
0 0 7 17 13 40 14 28 2 40 -1 40 -10z m110 2 c0 -5 -8 -9 -17 -8 -10 0 -30 -3
-45 -6 -24 -6 -36 2 -24 15 9 9 86 8 86 -1z m-1183 -52 c-3 -8 -6 -5 -6 6 -1
11 2 17 5 13 3 -3 4 -12 1 -19z m250 0 c-3 -8 -6 -5 -6 6 -1 11 2 17 5 13 3
-3 4 -12 1 -19z m113 9 c0 -7 -13 -14 -30 -15 -16 -1 -30 2 -30 7 0 8 10 12
53 20 4 0 7 -5 7 -12z m150 0 c0 -9 -10 -13 -27 -11 -40 3 -42 5 -8 14 17 4
31 8 33 9 1 0 2 -5 2 -12z m270 -3 c0 -7 -9 -12 -19 -11 -10 0 -17 6 -14 12 5
16 33 15 33 -1z m90 -1 c0 -8 -13 -13 -30 -13 -27 0 -38 9 -26 21 10 10 56 3
56 -8z m37 -5 c-3 -8 -6 -5 -6 6 -1 11 2 17 5 13 3 -3 4 -12 1 -19z m33 6 c0
-8 -5 -12 -10 -9 -6 4 -8 11 -5 16 9 14 15 11 15 -7z m130 -1 c0 -7 -9 -13
-21 -13 -13 0 -18 4 -13 12 5 7 3 8 -7 2 -22 -13 -39 -13 -39 0 0 8 15 13 40
13 27 0 40 -4 40 -14z m83 4 c3 -9 -6 -13 -29 -14 -41 -1 -45 14 -6 20 15 2
28 5 28 6 1 0 4 -5 7 -12z m47 -6 c0 -13 -29 -8 -34 5 -3 7 2 10 15 7 10 -3
19 -9 19 -12z m65 7 c14 2 25 0 25 -5 0 -6 -18 -10 -40 -10 -22 0 -40 4 -40 8
0 10 24 18 28 9 1 -4 14 -5 27 -2z m42 -10 c-3 -8 -6 -5 -6 6 -1 11 2 17 5 13
3 -3 4 -12 1 -19z m110 0 c-3 -8 -6 -5 -6 6 -1 11 2 17 5 13 3 -3 4 -12 1 -19z
m53 7 c5 3 11 2 14 -3 2 -4 -9 -8 -25 -7 -30 0 -39 10 -16 18 6 2 14 0 15 -5
2 -4 8 -6 12 -3z m37 -7 c-3 -8 -6 -5 -6 6 -1 11 2 17 5 13 3 -3 4 -12 1 -19z
m53 11 c3 7 14 9 23 5 29 -11 19 -19 -23 -20 -22 -1 -40 2 -40 7 0 12 25 17
29 6 2 -5 6 -4 11 2z m130 -2 c0 -7 -13 -14 -30 -15 -16 -1 -30 2 -30 7 0 8
10 12 53 20 4 0 7 -5 7 -12z m17 -9 c-3 -8 -6 -5 -6 6 -1 11 2 17 5 13 3 -3 4
-12 1 -19z m-1637 4 c0 -4 -9 -8 -20 -9 -11 -1 -20 2 -20 8 0 5 9 9 20 9 11 0
20 -4 20 -8z m134 -1 c3 -4 -19 -8 -49 -8 -30 0 -55 4 -55 8 0 5 22 9 49 9 28
0 52 -4 55 -9z m43 -43 c-3 -8 -6 -5 -6 6 -1 11 2 17 5 13 3 -3 4 -12 1 -19z
m263 7 c0 -10 -10 -15 -30 -15 -38 0 -39 17 -2 23 15 2 28 5 30 6 1 0 2 -6 2
-14z m197 -7 c-3 -8 -6 -5 -6 6 -1 11 2 17 5 13 3 -3 4 -12 1 -19z m43 12 c9
-6 17 -5 22 3 5 8 8 6 8 -5 0 -13 -8 -18 -28 -18 -19 0 -29 5 -29 15 0 17 6
18 27 5z m106 0 c8 0 14 -4 14 -10 0 -5 -13 -10 -30 -10 -21 0 -30 5 -30 16 0
11 5 14 16 10 9 -3 22 -6 30 -6z m51 -12 c-3 -8 -6 -5 -6 6 -1 11 2 17 5 13 3
-3 4 -12 1 -19z m33 13 c0 -6 -4 -12 -8 -15 -5 -3 -9 1 -9 9 0 8 4 15 9 15 4
0 8 -4 8 -9z m89 -5 c9 -6 12 -5 8 2 -5 6 0 8 13 5 35 -9 21 -24 -20 -21 -23
1 -40 7 -40 14 0 13 17 13 39 0z m-959 -4 c0 -4 -9 -8 -20 -9 -11 -1 -20 2
-20 8 0 5 9 9 20 9 11 0 20 -4 20 -8z m85 -2 c-3 -5 -13 -10 -21 -10 -8 0 -14
5 -14 10 0 6 9 10 21 10 11 0 17 -4 14 -10z m50 0 c3 -5 1 -10 -4 -10 -6 0
-11 5 -11 10 0 6 2 10 4 10 3 0 8 -4 11 -10z m155 2 c0 -4 -13 -9 -30 -10 -16
-1 -30 2 -30 8 0 5 14 10 30 10 17 0 30 -4 30 -8z m800 -2 c0 -5 -13 -10 -30
-10 -16 0 -30 5 -30 10 0 6 14 10 30 10 17 0 30 -4 30 -10z m-1163 -42 c-3 -8
-6 -5 -6 6 -1 11 2 17 5 13 3 -3 4 -12 1 -19z m780 0 c-3 -8 -6 -5 -6 6 -1 11
2 17 5 13 3 -3 4 -12 1 -19z m130 0 c-3 -8 -6 -5 -6 6 -1 11 2 17 5 13 3 -3 4
-12 1 -19z m141 13 c12 -1 22 -6 22 -11 0 -6 -17 -10 -40 -8 -23 1 -40 7 -40
14 0 7 8 11 18 9 9 -2 27 -4 40 -4z m106 -10 c3 -4 -11 -7 -30 -8 -31 -1 -42
6 -29 19 7 7 54 -2 59 -11z m23 -3 c-3 -8 -6 -5 -6 6 -1 11 2 17 5 13 3 -3 4
-12 1 -19z m147 11 c10 1 17 -2 14 -9 -2 -6 -7 -11 -11 -11 -4 1 -16 1 -27 1
-11 0 -20 7 -20 16 0 10 4 12 13 7 6 -4 20 -6 31 -4z m-1254 -7 c0 -4 -9 -8
-20 -9 -11 -1 -20 2 -20 8 0 5 9 9 20 9 11 0 20 -4 20 -8z m140 -3 c0 -4 -25
-8 -55 -8 -30 0 -55 4 -55 9 0 4 25 8 55 8 30 -1 55 -5 55 -9z m150 3 c0 -4
-13 -9 -30 -10 -16 -1 -30 2 -30 8 0 5 14 10 30 10 17 0 30 -4 30 -8z m150 -2
c0 -6 -17 -10 -40 -8 -22 1 -40 6 -40 10 0 4 18 8 40 8 22 0 40 -5 40 -10z
m360 -2 c0 -4 -13 -8 -30 -8 -16 0 -30 5 -30 10 0 6 14 9 30 8 17 -1 30 -6 30
-10z m70 2 c0 -5 -4 -10 -10 -10 -5 0 -10 5 -10 10 0 6 5 10 10 10 6 0 10 -4
10 -10z m310 0 c0 -5 -4 -10 -10 -10 -5 0 -10 5 -10 10 0 6 5 10 10 10 6 0 10
-4 10 -10z m150 1 c0 -6 -9 -9 -20 -8 -11 1 -20 5 -20 9 0 4 9 8 20 8 11 0 20
-4 20 -9z m90 1 c0 -4 -11 -9 -25 -10 -13 -1 -29 -3 -36 -4 -6 -2 -14 3 -16
10 -3 8 8 12 36 12 23 0 41 -4 41 -8z m-1420 -40 c0 -4 -9 -8 -20 -9 -11 -1
-20 2 -20 5 0 4 9 8 20 9 11 1 20 -2 20 -5z m84 -4 c-7 -11 -34 -10 -34 1 0 6
9 9 19 8 11 0 17 -5 15 -9z m51 2 c3 -5 1 -10 -4 -10 -6 0 -11 5 -11 10 0 6 2
10 4 10 3 0 8 -4 11 -10z m42 -12 c-3 -8 -6 -5 -6 6 -1 11 2 17 5 13 3 -3 4
-12 1 -19z m113 12 c0 -5 -13 -10 -30 -10 -16 0 -30 5 -30 10 0 6 14 10 30 10
17 0 30 -4 30 -10z m150 -3 c0 -4 -18 -7 -40 -5 -22 1 -40 5 -40 8 0 4 18 7
40 6 22 0 40 -4 40 -9z m160 3 c0 -5 -5 -10 -11 -10 -5 0 -7 5 -4 10 3 6 8 10
11 10 2 0 4 -4 4 -10z m110 -1 c0 -5 -22 -8 -50 -8 -27 1 -50 5 -50 8 0 4 23
8 50 8 28 1 50 -3 50 -8z m90 0 c0 -5 -16 -9 -36 -9 -19 0 -33 4 -30 8 7 12
66 13 66 1z m66 -1 c5 -7 2 -9 -9 -5 -9 3 -18 1 -21 -6 -2 -7 -5 -4 -5 6 -1
19 24 23 35 5z m128 0 c-3 -4 -18 -6 -34 -4 -16 2 -31 -2 -34 -8 -2 -6 -5 -3
-5 7 -1 15 6 17 38 15 22 -1 38 -5 35 -10z m246 0 c0 -5 -49 -8 -110 -7 -60 1
-110 5 -110 9 0 4 50 7 110 7 61 -1 110 -5 110 -9z m-1313 -40 c-3 -8 -6 -5
-6 6 -1 11 2 17 5 13 3 -3 4 -12 1 -19z m73 2 c0 -3 -13 -6 -30 -6 -16 0 -30
3 -30 6 0 4 14 7 30 7 17 0 30 -3 30 -7z m128 -5 c2 -1 -20 -3 -49 -3 -31 -1
-48 3 -40 7 11 7 81 5 89 -4z m49 -7 c-3 -8 -6 -5 -6 6 -1 11 2 17 5 13 3 -3
4 -12 1 -19z m113 10 c0 -8 -12 -13 -30 -13 -16 0 -30 5 -30 10 0 6 14 12 30
13 19 1 30 -2 30 -10z m150 0 c0 -5 -3 -8 -7 -9 -5 0 -16 -2 -25 -4 -10 -2
-20 1 -24 6 -3 5 -10 7 -15 4 -5 -4 -9 -2 -9 3 0 5 18 9 40 8 22 0 40 -4 40
-8z m270 -5 c0 -15 -2 -16 -10 -3 -6 10 -10 11 -10 3 0 -7 -4 -13 -10 -13 -5
0 -7 7 -4 15 8 21 34 19 34 -2z m37 -5 c-3 -8 -6 -5 -6 6 -1 11 2 17 5 13 3
-3 4 -12 1 -19z m48 12 c3 -5 -3 -10 -15 -10 -12 0 -18 5 -15 10 3 6 10 10 15
10 5 0 12 -4 15 -10z m42 -12 c-3 -8 -6 -5 -6 6 -1 11 2 17 5 13 3 -3 4 -12 1
-19z m33 12 c0 -5 -4 -10 -10 -10 -5 0 -10 5 -10 10 0 6 5 10 10 10 6 0 10 -4
10 -10z m130 -3 c0 -7 -9 -13 -20 -14 -13 -1 -18 2 -14 9 5 7 2 8 -7 2 -23
-14 -39 -13 -39 2 0 10 12 14 40 14 26 0 40 -5 40 -13z m174 -2 c-5 -12 -74
-14 -74 -3 0 4 -10 4 -22 0 -20 -7 -33 -8 -54 -3 -3 0 -3 4 0 9 7 12 154 9
150 -3z m136 -3 c0 -12 -3 -12 -15 -2 -12 10 -15 10 -15 0 0 -8 -3 -11 -6 -7
-9 9 3 24 21 24 8 0 15 -7 15 -15z m17 -4 c-3 -8 -6 -5 -6 6 -1 11 2 17 5 13
3 -3 4 -12 1 -19z m20 0 c-3 -8 -6 -5 -6 6 -1 11 2 17 5 13 3 -3 4 -12 1 -19z
m53 0 c0 -6 -6 -5 -15 2 -12 10 -15 10 -15 0 0 -8 -3 -11 -6 -7 -3 3 -3 10 0
16 8 12 36 3 36 -11z m17 0 c-3 -8 -6 -5 -6 6 -1 11 2 17 5 13 3 -3 4 -12 1
-19z m20 0 c-3 -8 -6 -5 -6 6 -1 11 2 17 5 13 3 -3 4 -12 1 -19z m20 0 c-3 -8
-6 -5 -6 6 -1 11 2 17 5 13 3 -3 4 -12 1 -19z m73 5 c0 -9 -7 -10 -24 -3 -13
5 -27 6 -30 3 -3 -4 -6 -1 -6 5 0 7 12 11 30 10 17 -1 30 -8 30 -15z m17 -5
c-3 -8 -6 -5 -6 6 -1 11 2 17 5 13 3 -3 4 -12 1 -19z m73 8 c0 -10 -7 -12 -22
-8 -21 5 -21 6 -2 13 10 4 20 8 22 8 1 1 2 -5 2 -13z m17 -8 c-3 -8 -6 -5 -6
6 -1 11 2 17 5 13 3 -3 4 -12 1 -19z m20 0 c-3 -8 -6 -5 -6 6 -1 11 2 17 5 13
3 -3 4 -12 1 -19z m-1640 -40 c-3 -8 -6 -5 -6 6 -1 11 2 17 5 13 3 -3 4 -12 1
-19z m63 7 c-14 -17 -30 -20 -30 -6 0 5 8 12 18 14 9 3 19 5 21 6 2 0 -2 -6
-9 -14z m97 -7 c-3 -8 -6 -5 -6 6 -1 11 2 17 5 13 3 -3 4 -12 1 -19z m40 0
c-3 -8 -6 -5 -6 6 -1 11 2 17 5 13 3 -3 4 -12 1 -19z m73 9 c0 -7 -13 -14 -30
-15 -16 -1 -30 2 -30 7 0 8 10 12 53 20 4 0 7 -5 7 -12z m150 -2 c0 -7 -12
-11 -27 -9 -35 3 -35 3 -29 12 7 12 56 9 56 -3z m228 2 c7 -5 12 -4 12 2 0 6
7 11 15 11 8 0 15 -6 15 -13 0 -10 -16 -14 -60 -13 -35 1 -60 5 -60 11 0 13
59 14 78 2z m118 3 c8 0 14 -4 14 -10 0 -5 -13 -10 -30 -10 -21 0 -30 5 -30
16 0 11 5 14 16 10 9 -3 22 -6 30 -6z m84 -5 c0 -8 -9 -13 -20 -12 -11 1 -20
6 -20 12 0 6 9 11 20 12 11 1 20 -4 20 -12z m130 -2 c0 -7 -9 -13 -21 -13 -13
0 -18 4 -13 12 5 7 3 8 -7 2 -22 -13 -39 -13 -39 0 0 8 15 13 40 13 27 0 40
-4 40 -14z m177 3 c-5 -14 -77 -15 -77 -2 0 8 -3 8 -8 1 -8 -13 -72 -16 -72
-4 0 8 43 14 118 15 25 0 41 -4 39 -10z m40 -8 c-3 -8 -6 -5 -6 6 -1 11 2 17
5 13 3 -3 4 -12 1 -19z m53 13 c0 -6 -4 -13 -10 -16 -5 -3 -10 1 -10 9 0 9 5
16 10 16 6 0 10 -4 10 -9z m40 -7 c0 -8 -4 -12 -10 -9 -5 3 -10 10 -10 16 0 5
5 9 10 9 6 0 10 -7 10 -16z m-1310 -2 c0 -4 -9 -8 -20 -9 -11 -1 -20 2 -20 8
0 5 9 9 20 9 11 0 20 -4 20 -8z m135 -2 c3 -5 1 -10 -4 -10 -6 0 -11 5 -11 10
0 6 2 10 4 10 3 0 8 -4 11 -10z m-208 -42 c-3 -8 -6 -5 -6 6 -1 11 2 17 5 13
3 -3 4 -12 1 -19z m250 0 c-3 -8 -6 -5 -6 6 -1 11 2 17 5 13 3 -3 4 -12 1 -19z
m113 9 c0 -7 -13 -14 -30 -15 -38 -3 -40 15 -2 21 15 2 28 5 30 6 1 0 2 -5 2
-12z m150 0 c0 -7 -13 -14 -30 -15 -38 -3 -40 15 -2 21 15 2 28 5 30 6 1 0 2
-5 2 -12z m270 -2 c0 -6 -9 -11 -19 -12 -12 -1 -18 3 -15 11 6 16 34 17 34 1z
m37 -7 c-3 -8 -6 -5 -6 6 -1 11 2 17 5 13 3 -3 4 -12 1 -19z m90 0 c-3 -8 -6
-5 -6 6 -1 11 2 17 5 13 3 -3 4 -12 1 -19z m33 6 c0 -8 -5 -12 -10 -9 -6 4 -8
11 -5 16 9 14 15 11 15 -7z m89 2 c9 -6 12 -5 8 2 -5 6 0 8 13 5 35 -9 21 -24
-20 -21 -23 1 -40 7 -40 14 0 13 17 13 39 0z m171 0 c0 -9 -16 -13 -55 -14
-30 0 -55 4 -55 9 0 5 20 8 45 7 25 0 48 2 52 5 10 10 13 8 13 -7z m30 -7 c0
-5 -4 -9 -10 -9 -5 0 -10 7 -10 16 0 8 5 12 10 9 6 -3 10 -10 10 -16z m170 2
c0 -11 -60 -9 -61 3 0 6 -4 2 -9 -9 -6 -15 -9 -16 -9 -4 -1 9 1 18 4 20 7 7
75 -2 75 -10z m85 7 c14 2 25 0 25 -4 0 -5 -18 -10 -40 -10 -22 -1 -40 2 -40
7 0 10 24 18 28 9 1 -4 14 -5 27 -2z m132 -10 c-3 -8 -6 -5 -6 6 -1 11 2 17 5
13 3 -3 4 -12 1 -19z m90 0 c-3 -8 -6 -5 -6 6 -1 11 2 17 5 13 3 -3 4 -12 1
-19z m-1637 4 c0 -4 -9 -8 -20 -9 -11 -1 -20 2 -20 8 0 5 9 9 20 9 11 0 20 -4
20 -8z m134 -1 c3 -4 -19 -9 -49 -9 -30 0 -55 4 -55 9 0 11 97 12 104 0z m666
0 c0 -6 -9 -9 -20 -8 -11 1 -20 5 -20 9 0 4 9 8 20 8 11 0 20 -4 20 -9z m730
1 c0 -4 -13 -9 -30 -10 -16 -1 -30 2 -30 8 0 5 14 10 30 10 17 0 30 -4 30 -8z
m90 0 c0 -4 -13 -7 -30 -7 -16 -1 -30 3 -30 7 0 4 14 8 30 8 17 0 30 -3 30 -8z
m-1693 -44 c-3 -8 -6 -5 -6 6 -1 11 2 17 5 13 3 -3 4 -12 1 -19z m250 0 c-3
-8 -6 -5 -6 6 -1 11 2 17 5 13 3 -3 4 -12 1 -19z m263 7 c0 -10 -10 -15 -30
-15 -38 0 -39 17 -2 23 15 2 28 5 30 6 1 0 2 -6 2 -14z m241 -8 c-10 -9 -11
-8 -5 6 3 10 9 15 12 12 3 -3 0 -11 -7 -18z m26 1 c-3 -8 -6 -5 -6 6 -1 11 2
17 5 13 3 -3 4 -12 1 -19z m79 12 c8 0 14 -4 14 -10 0 -5 -13 -10 -30 -10 -21
0 -30 5 -30 16 0 11 5 14 16 10 9 -3 22 -6 30 -6z m82 -8 c2 -7 -6 -12 -17
-12 -12 0 -21 6 -21 14 0 17 32 15 38 -2z m110 9 c12 -1 22 -6 22 -11 0 -6
-17 -10 -40 -8 -23 1 -40 7 -40 14 0 7 8 11 18 9 9 -2 27 -4 40 -4z m152 -6
c0 -8 -9 -15 -20 -15 -25 0 -26 17 -2 23 9 3 18 5 20 6 1 0 2 -6 2 -14z m118
2 c9 -10 6 -13 -13 -13 -19 0 -22 3 -13 13 6 7 12 13 13 13 1 0 7 -6 13 -13z
m189 -9 c-3 -8 -6 -5 -6 6 -1 11 2 17 5 13 3 -3 4 -12 1 -19z m20 0 c-3 -8 -6
-5 -6 6 -1 11 2 17 5 13 3 -3 4 -12 1 -19z m33 12 c1 11 4 10 15 -4 14 -19 15
-19 15 -1 0 10 3 16 6 12 4 -3 4 -13 1 -20 -8 -20 -57 -10 -57 12 0 14 2 14
10 1 9 -13 10 -13 10 0z m57 -12 c-3 -8 -6 -5 -6 6 -1 11 2 17 5 13 3 -3 4
-12 1 -19z m69 -4 c-4 -9 -9 -15 -11 -12 -3 3 -3 13 1 22 4 9 9 15 11 12 3 -3
3 -13 -1 -22z m21 4 c-3 -8 -6 -5 -6 6 -1 11 2 17 5 13 3 -3 4 -12 1 -19z
m-1637 4 c0 -4 -9 -8 -20 -9 -11 -1 -20 2 -20 8 0 5 9 9 20 9 11 0 20 -4 20
-8z m135 -1 c3 -6 -18 -10 -50 -10 -30 0 -55 5 -55 10 0 5 22 9 49 9 28 0 52
-4 56 -9z m155 1 c0 -4 -13 -9 -30 -10 -16 -1 -30 2 -30 8 0 5 14 10 30 10 17
0 30 -4 30 -8z m790 -1 c0 -5 -6 -11 -12 -14 -19 -6 -49 4 -42 14 7 12 54 12
54 0z m80 -1 c0 -5 -4 -10 -10 -10 -5 0 -10 5 -10 10 0 6 5 10 10 10 6 0 10
-4 10 -10z m130 0 c0 -5 -4 -10 -10 -10 -5 0 -10 5 -10 10 0 6 5 10 10 10 6 0
10 -4 10 -10z m300 1 c0 -5 -7 -11 -15 -15 -9 -3 -15 0 -15 9 0 8 7 15 15 15
8 0 15 -4 15 -9z m-790 -42 c0 -5 -13 -9 -30 -9 -18 0 -30 5 -30 13 0 9 10 12
30 9 17 -2 30 -8 30 -13z m303 0 c-12 -12 -68 -16 -68 -4 0 5 9 11 19 12 11 2
22 5 24 8 2 2 11 1 19 -2 8 -3 11 -9 6 -14z m-1103 3 c0 -4 -9 -8 -20 -9 -11
-1 -20 2 -20 5 0 4 9 8 20 9 11 1 20 -2 20 -5z m84 -4 c-7 -11 -34 -10 -34 1
0 6 9 9 19 8 11 0 17 -5 15 -9z m56 2 c0 -5 -4 -10 -10 -10 -5 0 -10 5 -10 10
0 6 5 10 10 10 6 0 10 -4 10 -10z m150 2 c0 -4 -13 -9 -30 -10 -16 -1 -30 2
-30 8 0 5 14 10 30 10 17 0 30 -4 30 -8z m150 -5 c0 -4 -18 -7 -40 -5 -22 1
-40 5 -40 10 0 4 18 7 40 5 22 -1 40 -6 40 -10z m270 3 c0 -4 -18 -7 -40 -7
-22 0 -40 3 -40 7 0 4 18 7 40 7 22 0 40 -3 40 -7z m160 0 c0 -5 -4 -10 -10
-10 -5 0 -10 5 -10 10 0 6 5 10 10 10 6 0 10 -4 10 -10z m80 2 c0 -4 -11 -8
-25 -8 -14 0 -25 4 -25 8 0 4 11 8 25 8 14 0 25 -4 25 -8z m-1023 -44 c-3 -8
-6 -5 -6 6 -1 11 2 17 5 13 3 -3 4 -12 1 -19z m1443 8 c0 -8 -7 -16 -15 -20
-9 -3 -15 0 -15 10 0 8 5 12 10 9 6 -3 10 -1 10 4 0 6 2 11 5 11 3 0 5 -6 5
-14z m-1370 -4 c0 -4 -9 -8 -20 -9 -11 -1 -20 2 -20 5 0 4 9 8 20 9 11 1 20
-2 20 -5z m135 -2 c-3 -4 -29 -8 -57 -8 -30 0 -45 3 -35 7 26 10 98 11 92 1z
m42 -12 c-3 -8 -6 -5 -6 6 -1 11 2 17 5 13 3 -3 4 -12 1 -19z m113 10 c0 -8
-12 -13 -30 -13 -16 0 -30 5 -30 10 0 6 14 12 30 13 19 1 30 -2 30 -10z m150
0 c0 -5 -3 -8 -7 -9 -5 0 -16 -2 -25 -4 -10 -2 -20 1 -24 6 -3 5 -10 7 -15 4
-5 -4 -9 -2 -9 3 0 5 18 9 40 8 22 0 40 -4 40 -8z m246 -15 c-10 -10 -19 5
-10 18 6 11 8 11 12 0 2 -7 1 -15 -2 -18z m21 5 c-3 -8 -6 -5 -6 6 -1 11 2 17
5 13 3 -3 4 -12 1 -19z m93 12 c0 -5 -9 -10 -20 -10 -11 0 -20 5 -20 10 0 6 9
10 20 10 11 0 20 -4 20 -10z m37 -12 c-3 -8 -6 -5 -6 6 -1 11 2 17 5 13 3 -3
4 -12 1 -19z m33 12 c0 -5 -4 -10 -10 -10 -5 0 -10 5 -10 10 0 6 5 10 10 10 6
0 10 -4 10 -10z m130 -3 c0 -8 -7 -14 -15 -14 -8 0 -15 5 -15 10 0 5 -7 4 -15
-3 -12 -10 -15 -10 -15 1 0 11 -2 11 -10 -1 -8 -13 -10 -12 -10 3 0 13 9 17
40 17 27 0 40 -4 40 -13z m130 -1 c0 -5 -25 -10 -55 -11 -50 -1 -63 3 -50 16
9 9 105 4 105 -5z m107 -8 c-3 -8 -6 -5 -6 6 -1 11 2 17 5 13 3 -3 4 -12 1
-19z m67 10 c-3 -4 -1 -8 5 -8 5 0 12 5 14 10 3 6 4 5 3 -2 -3 -16 -48 -17
-53 -1 -3 7 4 11 16 10 11 0 17 -5 15 -9z m116 1 c0 -10 -27 -19 -34 -12 -12
12 -5 22 14 20 11 -1 20 -4 20 -8z m110 0 c0 -6 -4 -7 -10 -4 -5 3 -10 2 -10
-3 0 -5 -13 -7 -30 -4 -43 6 -37 17 10 19 22 2 40 -2 40 -8z m40 3 c0 -5 -7
-9 -15 -9 -8 0 -12 4 -9 9 3 4 9 8 15 8 5 0 9 -4 9 -8z m-1573 -47 c5 -4 3 -5
-4 -2 -6 4 -14 1 -16 -5 -4 -10 -8 -9 -16 2 -9 12 -11 13 -11 1 0 -8 -3 -12
-6 -8 -3 3 -3 10 0 15 6 11 43 9 53 -3z m83 0 c-7 -8 -17 -12 -23 -8 -6 4 -3
9 9 14 27 11 28 11 14 -6z m97 -7 c-3 -8 -6 -5 -6 6 -1 11 2 17 5 13 3 -3 4
-12 1 -19z m113 7 c0 -6 -13 -11 -30 -11 -39 0 -39 21 0 22 17 1 30 -4 30 -11z
m150 -1 c0 -12 -38 -13 -57 -1 -8 5 -13 3 -13 -4 0 -7 -3 -10 -6 -6 -13 12 6
23 40 23 20 0 36 -5 36 -12z m160 1 c0 -8 -4 -15 -10 -15 -5 0 -7 7 -4 15 4 8
8 15 10 15 2 0 4 -7 4 -15z m110 1 c0 -8 -15 -13 -40 -13 -22 0 -40 5 -40 11
0 6 -5 4 -10 -4 -8 -13 -10 -13 -10 2 0 14 9 17 50 16 33 0 50 -4 50 -12z m90
-5 c0 -8 -6 -11 -16 -7 -9 3 -22 6 -30 6 -8 0 -14 4 -14 9 0 4 13 8 30 7 18
-1 30 -6 30 -15z m68 7 c-6 -17 -38 -19 -38 -2 0 8 9 14 21 14 11 0 19 -5 17
-12z m132 0 c0 -8 -9 -14 -20 -15 -13 -1 -18 2 -14 9 5 7 2 8 -7 2 -22 -13
-39 -13 -39 0 0 7 17 13 40 14 28 2 40 -1 40 -10z m144 3 c5 -1 6 -4 2 -8 -10
-10 -126 -13 -126 -3 0 4 2 9 4 11 4 4 89 4 120 0z m36 0 c0 -6 -4 -12 -8 -15
-5 -3 -9 1 -9 9 0 8 4 15 9 15 4 0 8 -4 8 -9z m40 -7 c0 -8 -4 -12 -10 -9 -5
3 -10 10 -10 16 0 5 5 9 10 9 6 0 10 -7 10 -16z m50 7 c0 -6 -4 -13 -10 -16
-5 -3 -10 1 -10 9 0 9 5 16 10 16 6 0 10 -4 10 -9z m-1093 -53 c-3 -8 -6 -5
-6 6 -1 11 2 17 5 13 3 -3 4 -12 1 -19z m113 9 c0 -7 -13 -14 -30 -15 -38 -3
-40 15 -2 21 15 2 28 5 30 6 1 0 2 -5 2 -12z m150 0 c0 -7 -13 -13 -30 -13
-38 -2 -40 13 -2 19 15 2 28 5 30 6 1 0 2 -5 2 -12z m177 -9 c-3 -8 -6 -5 -6
6 -1 11 2 17 5 13 3 -3 4 -12 1 -19z m39 10 c-4 6 -2 12 3 12 6 0 11 -6 11
-12 0 -8 3 -9 8 -3 12 16 32 16 32 0 0 -11 -11 -15 -40 -15 -30 0 -40 4 -40
16 0 14 2 15 17 3 11 -10 14 -10 9 -1z m130 2 c8 0 14 -4 14 -9 0 -5 -13 -8
-30 -7 -18 0 -30 6 -30 14 0 9 6 12 16 8 9 -3 22 -6 30 -6z m51 -12 c-3 -8 -6
-5 -6 6 -1 11 2 17 5 13 3 -3 4 -12 1 -19z m33 13 c0 -6 -4 -13 -10 -16 -5 -3
-10 1 -10 9 0 9 5 16 10 16 6 0 10 -4 10 -9z m37 -13 c-3 -8 -6 -5 -6 6 -1 11
2 17 5 13 3 -3 4 -12 1 -19z m43 3 c0 -4 -7 -8 -15 -8 -8 0 -15 6 -15 13 0 8
6 11 15 8 8 -4 15 -9 15 -13z m30 -2 c0 -5 -4 -9 -10 -9 -5 0 -10 7 -10 16 0
8 5 12 10 9 6 -3 10 -10 10 -16z m17 -1 c-3 -8 -6 -5 -6 6 -1 11 2 17 5 13 3
-3 4 -12 1 -19z m111 4 c3 -9 -10 -12 -42 -10 -53 2 -61 15 -13 21 42 5 50 3
55 -11z m66 3 c2 -6 -9 -11 -25 -11 -16 -1 -29 3 -29 10 0 14 48 15 54 1z
m-1174 -3 c0 -4 -9 -8 -20 -9 -11 -1 -20 2 -20 8 0 5 9 9 20 9 11 0 20 -4 20
-8z m80 -2 c-19 -13 -30 -13 -30 0 0 6 10 10 23 10 18 0 19 -2 7 -10z m55 0
c3 -5 1 -10 -4 -10 -6 0 -11 5 -11 10 0 6 2 10 4 10 3 0 8 -4 11 -10z m42 -42
c-3 -8 -6 -5 -6 6 -1 11 2 17 5 13 3 -3 4 -12 1 -19z m263 7 c0 -10 -10 -15
-30 -15 -38 0 -39 17 -2 23 15 2 28 5 30 6 1 0 2 -6 2 -14z m177 -7 c-3 -8 -6
-5 -6 6 -1 11 2 17 5 13 3 -3 4 -12 1 -19z m33 1 c0 -5 -4 -9 -10 -9 -5 0 -10
7 -10 16 0 8 5 12 10 9 6 -3 10 -10 10 -16z m30 7 c0 6 7 11 15 11 8 0 15 -6
15 -12 0 -7 -11 -12 -25 -12 -16 0 -25 5 -25 16 0 14 2 14 10 1 5 -8 10 -10
10 -4z m120 -6 c0 -4 -13 -7 -30 -8 -18 0 -30 4 -30 12 0 8 10 11 30 8 17 -2
30 -8 30 -12z m37 -2 c-3 -8 -6 -5 -6 6 -1 11 2 17 5 13 3 -3 4 -12 1 -19z
m33 1 c0 -5 -4 -9 -10 -9 -5 0 -10 7 -10 16 0 8 5 12 10 9 6 -3 10 -10 10 -16z
m73 12 c19 -2 4 -17 -18 -17 -14 0 -25 5 -25 12 0 7 8 11 18 9 9 -2 20 -4 25
-4z m37 -12 c0 -6 -4 -7 -10 -4 -5 3 -10 11 -10 16 0 6 5 7 10 4 6 -3 10 -11
10 -16z m17 -1 c-3 -8 -6 -5 -6 6 -1 11 2 17 5 13 3 -3 4 -12 1 -19z m113 3
c0 -4 -8 -7 -18 -8 -9 -1 -22 -2 -27 -3 -21 -5 -45 0 -45 9 0 6 15 11 33 13
35 4 57 0 57 -11z m-1110 1 c0 -4 -9 -8 -20 -9 -11 -1 -20 2 -20 8 0 5 9 9 20
9 11 0 20 -4 20 -8z m85 -2 c-3 -5 -13 -10 -21 -10 -8 0 -14 5 -14 10 0 6 9
10 21 10 11 0 17 -4 14 -10z m55 0 c0 -5 -4 -10 -10 -10 -5 0 -10 5 -10 10 0
6 5 10 10 10 6 0 10 -4 10 -10z m150 2 c0 -4 -13 -9 -30 -10 -16 -1 -30 2 -30
8 0 5 14 10 30 10 17 0 30 -4 30 -8z m420 -39 c0 -8 -15 -13 -40 -13 -39 0
-56 15 -23 22 35 7 63 3 63 -9z m90 -3 c0 -4 -13 -7 -30 -8 -18 0 -30 4 -30
12 0 8 10 11 30 8 17 -2 30 -8 30 -12z m150 1 c0 -4 -11 -7 -25 -7 -26 0 -34
11 -12 19 14 5 37 -2 37 -12z m180 -2 c0 -5 -15 -9 -32 -10 -18 0 -41 -2 -50
-4 -10 -2 -18 3 -18 10 0 14 40 23 78 16 12 -2 22 -7 22 -12z m-1130 3 c0 -4
-9 -8 -20 -9 -11 -1 -20 2 -20 8 0 5 9 9 20 9 11 0 20 -4 20 -8z m84 -4 c-7
-11 -34 -10 -34 1 0 6 9 9 19 8 11 0 17 -5 15 -9z m56 2 c0 -5 -4 -10 -10 -10
-5 0 -10 5 -10 10 0 6 5 10 10 10 6 0 10 -4 10 -10z m150 2 c0 -4 -13 -9 -30
-10 -16 -1 -30 2 -30 8 0 5 14 10 30 10 17 0 30 -4 30 -8z m150 -4 c0 -5 -18
-8 -40 -6 -22 1 -40 6 -40 10 0 5 18 8 40 6 22 -1 40 -6 40 -10z m430 2 c0 -5
-4 -10 -10 -10 -5 0 -10 5 -10 10 0 6 5 10 10 10 6 0 10 -4 10 -10z m330 1 c0
-5 -7 -12 -16 -15 -22 -9 -24 -8 -24 9 0 8 9 15 20 15 11 0 20 -4 20 -9z
m-1200 -41 c0 -3 -13 -6 -30 -6 -16 0 -30 3 -30 7 0 4 14 7 30 7 17 -1 30 -4
30 -8z m84 -2 c-7 -11 -34 -10 -34 1 0 6 9 9 19 8 11 0 17 -5 15 -9z m56 8 c0
-3 -4 -8 -10 -11 -5 -3 -10 -1 -10 4 0 6 5 11 10 11 6 0 10 -2 10 -4z m37 -18
c-3 -8 -6 -5 -6 6 -1 11 2 17 5 13 3 -3 4 -12 1 -19z m113 9 c0 -9 -10 -12
-30 -9 -16 2 -30 8 -30 13 0 5 14 9 30 9 18 0 30 -5 30 -13z m150 0 c0 -4 -18
-7 -40 -5 -22 1 -40 5 -40 8 0 4 18 7 40 6 22 0 40 -4 40 -9z m177 -9 c-3 -8
-6 -5 -6 6 -1 11 2 17 5 13 3 -3 4 -12 1 -19z m33 12 c0 -5 -4 -10 -10 -10 -5
0 -10 5 -10 10 0 6 5 10 10 10 6 0 10 -4 10 -10z m60 1 c0 -5 -11 -8 -25 -8
-14 0 -25 2 -25 6 0 4 11 8 25 9 14 1 25 -2 25 -7z m90 -1 c0 -5 -13 -10 -30
-10 -16 0 -30 5 -30 10 0 6 14 10 30 10 17 0 30 -4 30 -10z m37 -12 c-3 -8 -6
-5 -6 6 -1 11 2 17 5 13 3 -3 4 -12 1 -19z m33 12 c0 -5 -4 -10 -10 -10 -5 0
-10 5 -10 10 0 6 5 10 10 10 6 0 10 -4 10 -10z m70 1 c-8 -6 -17 -8 -21 -5 -4
2 -10 -2 -12 -8 -3 -8 -6 -6 -6 5 -1 12 7 17 27 17 20 0 23 -3 12 -9z m57 -13
c-3 -8 -6 -5 -6 6 -1 11 2 17 5 13 3 -3 4 -12 1 -19z m139 10 c4 -5 -1 -8 -12
-9 -10 0 -38 -2 -61 -3 -39 -3 -52 2 -38 16 8 7 103 4 111 -4z m-1136 -39 c0
-5 -4 -8 -9 -5 -5 4 -11 0 -14 -6 -2 -7 -8 -9 -13 -5 -5 4 -2 12 6 17 20 13
30 12 30 -1z m85 1 c-3 -5 -14 -10 -23 -9 -14 0 -13 2 3 9 27 11 27 11 20 0z
m92 -12 c-3 -8 -6 -5 -6 6 -1 11 2 17 5 13 3 -3 4 -12 1 -19z m113 9 c0 -8
-12 -13 -30 -13 -16 0 -30 5 -30 11 0 6 14 12 30 13 19 2 30 -2 30 -11z m150
-3 c0 -9 -42 -12 -60 -4 -3 1 -9 2 -13 1 -5 -1 -6 2 -3 7 7 12 76 9 76 -4z
m270 5 c0 -11 -22 -16 -42 -11 -10 2 -15 8 -12 13 6 10 54 8 54 -2z m90 -5 c0
-11 -5 -14 -16 -10 -9 3 -22 6 -30 6 -27 0 -14 16 16 18 22 2 30 -2 30 -14z
m70 7 c0 -6 -5 -13 -12 -17 -7 -4 -8 -3 -4 4 4 7 3 12 -3 12 -5 0 -12 -6 -14
-12 -3 -8 -6 -6 -6 5 -1 11 6 17 19 17 11 0 20 -4 20 -9z m40 -6 c0 -8 -4 -15
-10 -15 -5 0 -7 7 -4 15 4 8 8 15 10 15 2 0 4 -7 4 -15z m17 -7 c-3 -8 -6 -5
-6 6 -1 11 2 17 5 13 3 -3 4 -12 1 -19z m73 11 c0 -4 -9 -9 -20 -12 -13 -3
-20 0 -20 8 0 8 9 13 20 12 11 -1 20 -4 20 -8z m86 -2 c4 -4 1 -7 -7 -8 -8 0
-24 -2 -36 -5 -21 -4 -30 5 -18 18 7 7 53 4 61 -5z m21 -9 c-3 -8 -6 -5 -6 6
-1 11 2 17 5 13 3 -3 4 -12 1 -19z m-1090 -40 c-3 -8 -6 -5 -6 6 -1 11 2 17 5
13 3 -3 4 -12 1 -19z m63 2 c-19 -12 -30 -12 -30 -1 0 10 31 20 40 14 2 -2 -2
-8 -10 -13z m97 -2 c-3 -8 -6 -5 -6 6 -1 11 2 17 5 13 3 -3 4 -12 1 -19z m40
0 c-3 -8 -6 -5 -6 6 -1 11 2 17 5 13 3 -3 4 -12 1 -19z m73 9 c0 -7 -13 -14
-30 -15 -16 -1 -30 2 -30 7 0 8 10 12 53 20 4 0 7 -5 7 -12z m150 -2 c0 -7
-12 -11 -27 -9 -39 3 -41 4 -18 13 28 11 45 9 45 -4z m177 -7 c-3 -8 -6 -5 -6
6 -1 11 2 17 5 13 3 -3 4 -12 1 -19z m93 6 c0 -15 -72 -12 -77 3 -3 8 9 11 36
10 23 -1 41 -7 41 -13z m76 6 c8 0 14 -5 14 -11 0 -15 -53 -6 -58 10 -3 10 0
12 12 8 10 -4 24 -7 32 -7z m74 3 c-8 -3 -18 -11 -22 -17 -5 -7 -8 -4 -8 7 0
11 7 17 23 16 15 0 17 -2 7 -6z m80 -9 c7 -7 1 -10 -15 -10 -14 0 -25 5 -25
12 0 14 25 13 40 -2z m58 -5 c3 -11 1 -11 -7 1 -7 10 -11 11 -11 3 0 -7 -4
-13 -10 -13 -5 0 -10 6 -10 14 0 18 33 14 38 -5z m112 8 c0 -9 -15 -13 -45
-13 -25 -1 -45 3 -45 9 0 5 18 7 40 5 22 -2 40 0 40 4 0 5 2 8 5 8 3 0 5 -6 5
-13z m17 -9 c-3 -8 -6 -5 -6 6 -1 11 2 17 5 13 3 -3 4 -12 1 -19z m20 0 c-3
-8 -6 -5 -6 6 -1 11 2 17 5 13 3 -3 4 -12 1 -19z m53 13 c0 -6 -4 -13 -10 -16
-5 -3 -10 0 -10 7 0 9 -3 9 -10 -2 -8 -13 -10 -12 -10 3 0 10 8 17 20 17 11 0
20 -4 20 -9z m-1200 -9 c0 -4 -9 -8 -20 -9 -11 -1 -20 2 -20 8 0 5 9 9 20 9
11 0 20 -4 20 -8z m135 -2 c3 -5 1 -10 -4 -10 -6 0 -11 5 -11 10 0 6 2 10 4
10 3 0 8 -4 11 -10z m42 -42 c-3 -8 -6 -5 -6 6 -1 11 2 17 5 13 3 -3 4 -12 1
-19z m113 9 c0 -7 -13 -14 -30 -15 -38 -3 -40 15 -2 21 15 2 28 5 30 6 1 0 2
-5 2 -12z m150 0 c0 -7 -13 -14 -30 -15 -38 -3 -40 15 -2 21 15 2 28 5 30 6 1
0 2 -5 2 -12z m177 -9 c-3 -8 -6 -5 -6 6 -1 11 2 17 5 13 3 -3 4 -12 1 -19z
m53 8 c0 -6 5 -4 10 4 9 13 10 13 10 0 0 -13 1 -13 10 0 8 13 10 13 10 -2 0
-13 -8 -16 -37 -13 -47 4 -45 3 -39 13 7 12 36 11 36 -2z m116 4 c8 0 14 -4
14 -10 0 -5 -13 -10 -30 -10 -21 0 -30 5 -30 16 0 11 5 14 16 10 9 -3 22 -6
30 -6z m82 -8 c2 -7 -6 -12 -17 -12 -12 0 -21 6 -21 14 0 17 32 15 38 -2z m91
4 c9 -6 12 -5 8 2 -5 6 0 8 13 5 35 -9 21 -24 -20 -21 -23 1 -40 7 -40 14 0
13 17 13 39 0z m171 -3 c0 -7 -7 -13 -15 -13 -8 0 -15 6 -15 13 0 8 7 14 15
14 8 0 15 -6 15 -14z m-1130 -1 c0 -4 -9 -8 -20 -9 -11 -1 -20 2 -20 8 0 5 9
9 20 9 11 0 20 -4 20 -8z m85 -2 c-3 -5 -13 -10 -21 -10 -8 0 -14 5 -14 10 0
6 9 10 21 10 11 0 17 -4 14 -10z m50 0 c3 -5 1 -10 -4 -10 -6 0 -11 5 -11 10
0 6 2 10 4 10 3 0 8 -4 11 -10z m955 2 c0 -12 -58 -14 -65 -2 -4 6 8 10 29 10
20 0 36 -4 36 -8z m-913 -44 c-3 -8 -6 -5 -6 6 -1 11 2 17 5 13 3 -3 4 -12 1
-19z m263 7 c0 -12 -10 -15 -40 -13 -50 3 -52 16 -2 21 20 2 38 4 40 5 1 1 2
-5 2 -13z m177 -7 c-3 -8 -6 -5 -6 6 -1 11 2 17 5 13 3 -3 4 -12 1 -19z m93 5
c0 -8 -14 -13 -40 -13 -25 0 -40 5 -40 13 0 7 15 12 40 12 26 1 40 -4 40 -12z
m76 7 c8 0 14 -4 14 -10 0 -5 -13 -10 -30 -10 -21 0 -30 5 -30 16 0 11 5 14
16 10 9 -3 22 -6 30 -6z m84 -15 c0 -3 -9 -5 -20 -5 -11 0 -20 7 -20 15 0 13
4 14 20 5 11 -6 20 -13 20 -15z m108 16 c12 -1 22 -6 22 -11 0 -6 -17 -10 -40
-8 -23 1 -40 7 -40 14 0 7 8 11 18 9 9 -2 27 -4 40 -4z m131 -15 c-5 -5 -45
-9 -73 -7 -29 2 -7 19 29 23 28 3 54 -6 44 -16z m38 2 c-3 -8 -6 -5 -6 6 -1
11 2 17 5 13 3 -3 4 -12 1 -19z m90 10 c18 1 33 -2 33 -7 0 -5 -17 -9 -37 -9
-21 1 -46 -3 -55 -7 -13 -5 -18 -3 -18 8 0 17 19 27 34 19 5 -3 24 -5 43 -4z
m-1237 -6 c0 -4 -9 -8 -20 -9 -11 -1 -20 2 -20 8 0 5 9 9 20 9 11 0 20 -4 20
-8z m85 -2 c-3 -5 -13 -10 -21 -10 -8 0 -14 5 -14 10 0 6 9 10 21 10 11 0 17
-4 14 -10z m50 0 c3 -5 1 -10 -4 -10 -6 0 -11 5 -11 10 0 6 2 10 4 10 3 0 8
-4 11 -10z m155 2 c0 -4 -13 -9 -30 -10 -16 -1 -30 2 -30 8 0 5 14 10 30 10
17 0 30 -4 30 -8z m420 -43 c0 -5 -7 -9 -15 -9 -8 0 -15 7 -15 15 0 9 6 12 15
9 8 -4 15 -10 15 -15z m-710 3 c0 -4 -9 -8 -20 -9 -11 -1 -20 2 -20 5 0 4 9 8
20 9 11 1 20 -2 20 -5z m84 -4 c-7 -11 -34 -10 -34 1 0 6 9 9 19 8 11 0 17 -5
15 -9z m51 2 c3 -5 1 -10 -4 -10 -6 0 -11 5 -11 10 0 6 2 10 4 10 3 0 8 -4 11
-10z m155 2 c0 -4 -13 -9 -30 -10 -16 -1 -30 2 -30 8 0 5 14 10 30 10 17 0 30
-4 30 -8z m150 -5 c0 -4 -18 -7 -40 -5 -22 1 -40 5 -40 10 0 4 18 7 40 5 22
-1 40 -6 40 -10z m210 3 c0 -5 -4 -10 -10 -10 -5 0 -10 5 -10 10 0 6 5 10 10
10 6 0 10 -4 10 -10z m150 0 c0 -5 -13 -10 -30 -10 -16 0 -30 5 -30 10 0 6 14
10 30 10 17 0 30 -4 30 -10z m70 0 c0 -5 -9 -10 -20 -10 -11 0 -20 5 -20 10 0
6 9 10 20 10 11 0 20 -4 20 -10z m130 1 c0 -5 -18 -9 -40 -8 -22 1 -40 5 -40
9 0 5 18 8 40 8 22 0 40 -4 40 -9z m220 -3 c0 -7 -15 -12 -33 -9 -23 4 -116 1
-139 -4 -25 -5 -36 3 -23 17 9 8 195 5 195 -4z m-1220 -38 c0 -3 -13 -6 -30
-6 -16 0 -30 3 -30 6 0 4 14 7 30 7 17 0 30 -3 30 -7z m84 -2 c-7 -11 -34 -10
-34 1 0 6 9 9 19 8 11 0 17 -5 15 -9z m93 -10 c-3 -8 -6 -5 -6 6 -1 11 2 17 5
13 3 -3 4 -12 1 -19z m113 10 c0 -8 -12 -13 -30 -13 -16 0 -30 5 -30 10 0 6
14 12 30 13 19 1 30 -2 30 -10z m150 0 c0 -5 -3 -8 -7 -9 -5 0 -16 -2 -25 -4
-10 -2 -20 1 -24 6 -3 5 -10 7 -15 4 -5 -4 -9 -2 -9 3 0 5 18 9 40 8 22 0 40
-4 40 -8z m177 -10 c-3 -8 -6 -5 -6 6 -1 11 2 17 5 13 3 -3 4 -12 1 -19z m93
10 c0 -8 -13 -13 -30 -13 -16 0 -30 5 -30 10 0 6 -5 3 -10 -5 -8 -13 -10 -12
-10 3 0 13 9 17 40 17 25 0 40 -5 40 -12z m90 -2 c0 -8 -10 -11 -30 -8 -16 2
-30 8 -30 12 0 4 14 7 30 8 18 0 30 -4 30 -12z m61 0 c-1 -16 -31 -15 -31 1 0
8 7 13 16 11 8 -2 15 -7 15 -12z m139 5 c0 -5 -7 -11 -15 -15 -8 -3 -15 -1
-15 5 0 6 -6 7 -12 2 -22 -13 -38 -12 -38 3 0 10 12 14 40 14 22 0 40 -4 40
-9z m107 -5 c0 -6 -20 -11 -44 -12 -39 -1 -51 5 -38 17 9 10 82 5 82 -5z
m-1127 -47 c0 -5 -4 -9 -10 -9 -5 0 -10 6 -10 13 0 8 -4 7 -10 -3 -5 -8 -10
-10 -10 -4 0 6 3 13 6 17 8 8 34 -3 34 -14z m37 -1 c-3 -8 -6 -5 -6 6 -1 11 2
17 5 13 3 -3 4 -12 1 -19z m63 2 c-19 -12 -30 -12 -30 -1 0 10 31 20 40 14 2
-2 -2 -8 -10 -13z m97 -2 c-3 -8 -6 -5 -6 6 -1 11 2 17 5 13 3 -3 4 -12 1 -19z
m113 7 c0 -6 -13 -11 -30 -11 -39 0 -39 21 0 22 17 1 30 -4 30 -11z m150 -1
c0 -12 -38 -13 -57 -1 -8 5 -13 3 -13 -4 0 -7 -3 -10 -6 -6 -13 12 6 23 40 23
20 0 36 -5 36 -12z m177 -6 c-3 -8 -6 -5 -6 6 -1 11 2 17 5 13 3 -3 4 -12 1
-19z m93 9 c0 -10 -13 -14 -40 -13 -22 0 -40 5 -40 12 0 6 18 11 40 12 27 1
40 -2 40 -11z m76 3 c8 0 14 -4 14 -9 0 -5 -13 -9 -30 -9 -19 1 -30 6 -30 16
0 9 6 12 16 8 9 -3 22 -6 30 -6z m78 -6 c3 -8 -3 -12 -15 -11 -10 1 -19 6 -19
12 0 16 28 15 34 -1z m136 1 c0 -8 -9 -15 -21 -15 -13 0 -18 4 -13 12 5 7 3 8
-7 2 -22 -13 -39 -13 -39 0 0 7 17 13 40 14 30 2 40 -1 40 -13z m150 0 c0 -6
-28 -10 -64 -10 -39 0 -62 4 -60 10 5 13 124 13 124 0z m90 -2 c0 -16 -5 -16
-31 -3 -10 6 -19 7 -19 2 0 -5 -7 -9 -15 -9 -21 0 -19 15 3 19 36 7 62 4 62
-9z m17 -5 c-3 -8 -6 -5 -6 6 -1 11 2 17 5 13 3 -3 4 -12 1 -19z m33 1 c0 -5
-4 -9 -10 -9 -5 0 -10 7 -10 16 0 8 5 12 10 9 6 -3 10 -10 10 -16z m-1113 -41
c-3 -8 -6 -5 -6 6 -1 11 2 17 5 13 3 -3 4 -12 1 -19z m113 9 c0 -7 -13 -14
-30 -15 -16 -1 -30 2 -30 7 0 8 10 12 53 20 4 0 7 -5 7 -12z m150 0 c0 -7 -13
-13 -30 -13 -38 -2 -40 13 -2 19 15 2 28 5 30 6 1 0 2 -5 2 -12z m217 0 c-6 9
1 12 23 10 45 -3 37 -24 -10 -24 -29 0 -40 4 -40 15 0 12 2 12 17 1 10 -9 14
-9 10 -2z m129 3 c8 0 14 -4 14 -10 0 -5 -13 -10 -30 -10 -21 0 -30 5 -30 16
0 11 5 14 16 10 9 -3 22 -6 30 -6z m78 -6 c3 -8 -3 -12 -15 -11 -10 1 -19 6
-19 12 0 16 28 15 34 -1z m95 2 c9 -6 12 -5 8 2 -5 6 0 8 13 5 35 -9 21 -24
-20 -21 -23 1 -40 7 -40 14 0 13 17 13 39 0z m191 2 c0 -9 -20 -13 -65 -14
-36 0 -65 3 -65 8 0 5 25 8 55 7 30 -1 58 1 62 4 9 10 13 9 13 -5z m-1150 -6
c0 -4 -9 -8 -20 -9 -11 -1 -20 2 -20 8 0 5 9 9 20 9 11 0 20 -4 20 -8z m80 -2
c-19 -13 -30 -13 -30 0 0 6 10 10 23 10 18 0 19 -2 7 -10z m55 0 c3 -5 1 -10
-4 -10 -6 0 -11 5 -11 10 0 6 2 10 4 10 3 0 8 -4 11 -10z m1055 0 c0 -5 -7
-10 -15 -10 -8 0 -15 5 -15 10 0 6 7 10 15 10 8 0 15 -4 15 -10z m30 0 c0 -5
-2 -10 -4 -10 -3 0 -8 5 -11 10 -3 6 -1 10 4 10 6 0 11 -4 11 -10z m-1043 -42
c-3 -8 -6 -5 -6 6 -1 11 2 17 5 13 3 -3 4 -12 1 -19z m263 7 c0 -10 -10 -15
-30 -15 -38 0 -39 17 -2 23 15 2 28 5 30 6 1 0 2 -6 2 -14z m177 -7 c-3 -8 -6
-5 -6 6 -1 11 2 17 5 13 3 -3 4 -12 1 -19z m33 1 c0 -5 -4 -9 -10 -9 -5 0 -10
7 -10 16 0 8 5 12 10 9 6 -3 10 -10 10 -16z m60 6 c0 -16 -47 -17 -53 -1 -4
10 3 13 24 12 16 0 29 -5 29 -11z m76 5 c8 0 14 -4 14 -10 0 -5 -13 -10 -30
-10 -21 0 -30 5 -30 16 0 11 5 14 16 10 9 -3 22 -6 30 -6z m78 -7 c3 -8 -2
-13 -14 -13 -11 0 -20 6 -20 13 0 8 7 14 15 14 8 0 16 -6 19 -14z m96 7 c3 -1
13 -2 23 -1 9 1 17 -3 17 -9 0 -6 -16 -10 -40 -8 -23 1 -40 7 -40 14 0 10 19
12 40 4z m150 -4 c0 -16 -48 -26 -76 -15 -16 6 -16 8 -4 12 8 4 29 8 45 10 17
2 31 5 33 6 1 0 2 -5 2 -13z m36 1 c8 3 14 1 14 -4 0 -5 -9 -9 -20 -10 -13 -1
-20 4 -19 15 0 10 3 12 5 5 3 -7 12 -9 20 -6z m-1146 -5 c0 -4 -9 -8 -20 -9
-11 -1 -20 2 -20 8 0 5 9 9 20 9 11 0 20 -4 20 -8z m85 -2 c-8 -13 -35 -13
-35 0 0 6 9 10 21 10 11 0 17 -4 14 -10z m50 0 c3 -5 1 -10 -4 -10 -6 0 -11 5
-11 10 0 6 2 10 4 10 3 0 8 -4 11 -10z m155 2 c0 -4 -13 -9 -30 -10 -16 -1
-30 2 -30 8 0 5 14 10 30 10 17 0 30 -4 30 -8z m420 -37 c0 -10 -9 -14 -25
-13 -14 1 -25 6 -25 11 0 5 9 7 20 4 11 -3 20 -1 20 4 0 5 2 9 5 9 3 0 5 -7 5
-15z m160 -6 c0 -5 -9 -9 -20 -9 -11 0 -20 6 -20 14 0 9 7 12 20 9 11 -3 20
-9 20 -14z m130 1 c0 -5 -18 -8 -40 -7 -22 1 -40 6 -40 12 0 6 16 9 40 7 22
-2 40 -8 40 -12z m-1000 2 c0 -4 -9 -8 -20 -9 -11 -1 -20 2 -20 8 0 5 9 9 20
9 11 0 20 -4 20 -8z m84 -4 c-7 -11 -34 -10 -34 1 0 6 9 9 19 8 11 0 17 -5 15
-9z m51 2 c3 -5 1 -10 -4 -10 -6 0 -11 5 -11 10 0 6 2 10 4 10 3 0 8 -4 11
-10z m155 2 c0 -4 -13 -9 -30 -10 -16 -1 -30 2 -30 8 0 5 14 10 30 10 17 0 30
-4 30 -8z m150 -4 c0 -5 -18 -8 -40 -6 -22 1 -40 6 -40 10 0 5 18 8 40 6 22
-1 40 -6 40 -10z m210 2 c0 -5 -4 -10 -10 -10 -5 0 -10 5 -10 10 0 6 5 10 10
10 6 0 10 -4 10 -10z m150 0 c0 -5 -13 -10 -30 -10 -16 0 -30 5 -30 10 0 6 14
10 30 10 17 0 30 -4 30 -10z m375 -1 c-7 -11 -35 -12 -35 -1 0 4 9 8 20 9 11
1 18 -2 15 -8z"/>
</g>
</svg>
